HIERARCHY
ROOT Hips
{
	OFFSET 0.000000 121.760803 0.000000
	CHANNELS 6 Xposition Yposition Zposition Xrotation Yrotation Zrotation 
	JOINT Spine
	{
		OFFSET 0.072000 7.257294 -0.789700
		CHANNELS 3 Xrotation Yrotation Zrotation
		JOINT Spine1
		{
			OFFSET 0.000000 12.508769 -0.658067
			CHANNELS 3 Xrotation Yrotation Zrotation
			JOINT Spine1_split
			{
				OFFSET 0.000000 12.508769 -0.658067
				CHANNELS 3 Xrotation Yrotation Zrotation
				JOINT Spine2
				{
					OFFSET 0.000000 12.508769 -0.658067
					CHANNELS 3 Xrotation Yrotation Zrotation
					JOINT Neck
					{
						OFFSET 0.000000 14.033295 7.520400
						CHANNELS 3 Xrotation Yrotation Zrotation
						JOINT Head
						{
							OFFSET 0.000000 8.198502 5.703100
							CHANNELS 3 Xrotation Yrotation Zrotation
							JOINT HeadTop_End
							{
								OFFSET 0.000000 17.760803 13.332701
								CHANNELS 3 Xrotation Yrotation Zrotation
								End Site
								{
									OFFSET 0.000000 0.000000 0.000000
								}
							}
						}
					}
					JOINT LeftShoulder
					{
						OFFSET 6.292450 5.785301 -0.669000
						CHANNELS 3 Xrotation Yrotation Zrotation
						JOINT LeftShoulder_split
						{
							OFFSET 6.292450 5.785301 -0.669000
							CHANNELS 3 Xrotation Yrotation Zrotation
							JOINT LeftArm
							{
								OFFSET 13.907140 -6.093903 1.965100
								CHANNELS 3 Xrotation Yrotation Zrotation
								JOINT LeftForeArm
								{
									OFFSET 34.140198 0.000000 0.000000
									CHANNELS 3 Xrotation Yrotation Zrotation
									JOINT LeftHand
									{
										OFFSET 40.960209 0.000000 0.000000
										CHANNELS 3 Xrotation Yrotation Zrotation
										JOINT LeftHandThumb1
										{
											OFFSET 10.006996 -7.170425 9.573125
											CHANNELS 3 Xrotation Yrotation Zrotation
											JOINT LeftHandThumb2
											{
												OFFSET 1.835007 -1.059448 1.059443
												CHANNELS 3 Xrotation Yrotation Zrotation
												JOINT LeftHandThumb3
												{
													OFFSET 2.112267 -1.219513 1.219518
													CHANNELS 3 Xrotation Yrotation Zrotation
													JOINT LeftHandThumb4
													{
														OFFSET 4.843811 -2.796570 2.796576
														CHANNELS 3 Xrotation Yrotation Zrotation
														End Site
														{
															OFFSET 0.000000 0.000000 0.000000
														}
													}
												}
											}
										}
										JOINT LeftHandIndex1
										{
											OFFSET 18.389847 -0.922348 4.596882
											CHANNELS 3 Xrotation Yrotation Zrotation
											JOINT LeftHandIndex2
											{
												OFFSET 4.711273 0.000000 0.000000
												CHANNELS 3 Xrotation Yrotation Zrotation
												JOINT LeftHandIndex3
												{
													OFFSET 2.886131 0.000000 0.000000
													CHANNELS 3 Xrotation Yrotation Zrotation
													JOINT LeftHandIndex4
													{
														OFFSET 6.145912 0.000000 0.000000
														CHANNELS 3 Xrotation Yrotation Zrotation
														End Site
														{
															OFFSET 0.000000 0.000000 0.000000
														}
													}
												}
											}
										}
										JOINT LeftHandMiddle1
										{
											OFFSET 18.013008 0.000000 0.000000
											CHANNELS 3 Xrotation Yrotation Zrotation
											JOINT LeftHandMiddle2
											{
												OFFSET 4.946693 0.000000 0.000000
												CHANNELS 3 Xrotation Yrotation Zrotation
												JOINT LeftHandMiddle3
												{
													OFFSET 3.342232 0.000000 0.000000
													CHANNELS 3 Xrotation Yrotation Zrotation
													JOINT LeftHandMiddle4
													{
														OFFSET 4.461754 0.000000 0.000000
														CHANNELS 3 Xrotation Yrotation Zrotation
														End Site
														{
															OFFSET 0.000000 0.000000 0.000000
														}
													}
												}
											}
										}
										JOINT LeftHandRing1
										{
											OFFSET 15.849892 -0.102921 -4.126150
											CHANNELS 3 Xrotation Yrotation Zrotation
											JOINT LeftHandRing2
											{
												OFFSET 3.527054 0.000000 0.000000
												CHANNELS 3 Xrotation Yrotation Zrotation
												JOINT LeftHandRing3
												{
													OFFSET 2.961098 0.000000 0.000000
													CHANNELS 3 Xrotation Yrotation Zrotation
													JOINT LeftHandRing4
													{
														OFFSET 4.927200 0.000000 0.000000
														CHANNELS 3 Xrotation Yrotation Zrotation
														End Site
														{
															OFFSET 0.000000 0.000000 0.000000
														}
													}
												}
											}
										}
										JOINT LeftHandPinky1
										{
											OFFSET 12.791824 -0.832031 -6.799156
											CHANNELS 3 Xrotation Yrotation Zrotation
											JOINT LeftHandPinky2
											{
												OFFSET 3.327133 0.000000 0.000000
												CHANNELS 3 Xrotation Yrotation Zrotation
												JOINT LeftHandPinky3
												{
													OFFSET 3.014900 0.000000 0.000000
													CHANNELS 3 Xrotation Yrotation Zrotation
													JOINT LeftHandPinky4
													{
														OFFSET 5.847786 0.000000 0.000000
														CHANNELS 3 Xrotation Yrotation Zrotation
														End Site
														{
															OFFSET 0.000000 0.000000 0.000000
														}
													}
												}
											}
										}
									}
								}
							}
						}
					}
					JOINT RightShoulder
					{
						OFFSET -6.292450 5.785301 -0.669000
						CHANNELS 3 Xrotation Yrotation Zrotation
						JOINT RightShoulder_split
						{
							OFFSET -6.292450 5.785301 -0.669000
							CHANNELS 3 Xrotation Yrotation Zrotation
							JOINT RightArm
							{
								OFFSET -13.907140 -6.093903 1.965100
								CHANNELS 3 Xrotation Yrotation Zrotation
								JOINT RightForeArm
								{
									OFFSET -34.140198 0.000000 0.000000
									CHANNELS 3 Xrotation Yrotation Zrotation
									JOINT RightHand
									{
										OFFSET -40.960209 0.000000 0.000000
										CHANNELS 3 Xrotation Yrotation Zrotation
										JOINT RightHandThumb1
										{
											OFFSET -10.007050 -7.170456 9.573117
											CHANNELS 3 Xrotation Yrotation Zrotation
											JOINT RightHandThumb2
											{
												OFFSET -1.835007 -1.059448 1.059443
												CHANNELS 3 Xrotation Yrotation Zrotation
												JOINT RightHandThumb3
												{
													OFFSET -2.112267 -1.219513 1.219518
													CHANNELS 3 Xrotation Yrotation Zrotation
													JOINT RightHandThumb4
													{
														OFFSET -4.843834 -2.796585 2.796590
														CHANNELS 3 Xrotation Yrotation Zrotation
														End Site
														{
															OFFSET 0.000000 0.000000 0.000000
														}
													}
												}
											}
										}
										JOINT RightHandIndex1
										{
											OFFSET -18.389870 -0.922424 4.596786
											CHANNELS 3 Xrotation Yrotation Zrotation
											JOINT RightHandIndex2
											{
												OFFSET -4.711273 0.000000 0.000000
												CHANNELS 3 Xrotation Yrotation Zrotation
												JOINT RightHandIndex3
												{
													OFFSET -2.886131 0.000000 0.000000
													CHANNELS 3 Xrotation Yrotation Zrotation
													JOINT RightHandIndex4
													{
														OFFSET -6.145920 0.000000 0.000000
														CHANNELS 3 Xrotation Yrotation Zrotation
														End Site
														{
															OFFSET 0.000000 0.000000 0.000000
														}
													}
												}
											}
										}
										JOINT RightHandMiddle1
										{
											OFFSET -18.013008 0.000000 0.000000
											CHANNELS 3 Xrotation Yrotation Zrotation
											JOINT RightHandMiddle2
											{
												OFFSET -4.946693 0.000000 0.000000
												CHANNELS 3 Xrotation Yrotation Zrotation
												JOINT RightHandMiddle3
												{
													OFFSET -3.342232 0.000000 0.000000
													CHANNELS 3 Xrotation Yrotation Zrotation
													JOINT RightHandMiddle4
													{
														OFFSET -4.461754 0.000000 0.000000
														CHANNELS 3 Xrotation Yrotation Zrotation
														End Site
														{
															OFFSET 0.000000 0.000000 0.000000
														}
													}
												}
											}
										}
										JOINT RightHandRing1
										{
											OFFSET -15.849876 -0.102936 -4.126237
											CHANNELS 3 Xrotation Yrotation Zrotation
											JOINT RightHandRing2
											{
												OFFSET -3.527054 0.000000 0.000000
												CHANNELS 3 Xrotation Yrotation Zrotation
												JOINT RightHandRing3
												{
													OFFSET -2.961098 0.000000 0.000000
													CHANNELS 3 Xrotation Yrotation Zrotation
													JOINT RightHandRing4
													{
														OFFSET -4.927200 0.000000 0.000000
														CHANNELS 3 Xrotation Yrotation Zrotation
														End Site
														{
															OFFSET 0.000000 0.000000 0.000000
														}
													}
												}
											}
										}
										JOINT RightHandPinky1
										{
											OFFSET -12.791786 -0.832077 -6.799222
											CHANNELS 3 Xrotation Yrotation Zrotation
											JOINT RightHandPinky2
											{
												OFFSET -3.327133 0.000000 0.000000
												CHANNELS 3 Xrotation Yrotation Zrotation
												JOINT RightHandPinky3
												{
													OFFSET -3.014900 0.000000 0.000000
													CHANNELS 3 Xrotation Yrotation Zrotation
													JOINT RightHandPinky4
													{
														OFFSET -5.847786 0.000000 0.000000
														CHANNELS 3 Xrotation Yrotation Zrotation
														End Site
														{
															OFFSET 0.000000 0.000000 0.000000
														}
													}
												}
											}
										}
									}
								}
							}
						}
					}
				}
			}
		}
	}
	JOINT LeftUpLeg
	{
		OFFSET 13.026900 -6.336304 -1.092800
		CHANNELS 3 Xrotation Yrotation Zrotation
		JOINT LeftLeg
		{
			OFFSET 0.524474 -46.096886 9.782700
			CHANNELS 3 Xrotation Yrotation Zrotation
			JOINT LeftFoot
			{
				OFFSET -0.524474 -53.427422 -12.948200
				CHANNELS 3 Xrotation Yrotation Zrotation
				JOINT LeftToeBase
				{
					OFFSET 0.192200 -14.009700 16.364100
					CHANNELS 3 Xrotation Yrotation Zrotation
					JOINT LeftToe_End
					{
						OFFSET -1.784700 -0.561700 9.474800
						CHANNELS 3 Xrotation Yrotation Zrotation
						End Site
						{
							OFFSET 0.000000 0.000000 0.000000
						}
					}
				}
			}
		}
	}
	JOINT RightUpLeg
	{
		OFFSET -12.883000 -6.336304 -1.092800
		CHANNELS 3 Xrotation Yrotation Zrotation
		JOINT RightLeg
		{
			OFFSET -0.524587 -46.096825 9.782800
			CHANNELS 3 Xrotation Yrotation Zrotation
			JOINT RightFoot
			{
				OFFSET 0.524587 -53.427383 -12.948300
				CHANNELS 3 Xrotation Yrotation Zrotation
				JOINT RightToeBase
				{
					OFFSET -0.192200 -14.009700 16.364100
					CHANNELS 3 Xrotation Yrotation Zrotation
					JOINT RightToe_End
					{
						OFFSET 1.784700 -0.561700 9.474800
						CHANNELS 3 Xrotation Yrotation Zrotation
						End Site
						{
							OFFSET 0.000000 0.000000 0.000000
						}
					}
				}
			}
		}
	}
}
MOTION
Frames: 5
Frame Time: 0.016667
-0.124934 111.543007 -0.301170 -24.508836 -2.301065 -1.948782 11.216761 -4.847459 -0.383996 3.545658 -2.400646 -0.151373 0.000000 0.000000 0.000000 3.557023 -2.388379 -0.108335 1.551788 0.634300 -1.308391 -6.938528 0.762141 3.865456 -0.000001 -0.000001 0.000000 0.445073 -15.488173 -11.025447 0.000000 0.000000 0.000000 -20.285394 3.054787 -36.773561 0.000076 -67.201931 0.000084 -41.639989 -11.471770 -7.743313 -22.783303 -14.798025 12.273486 3.104720 10.435611 14.815841 3.249526 44.532628 6.783432 0.000003 0.000003 0.000001 1.968601 -2.875776 26.071486 3.265044 5.250337 -63.730405 1.613332 4.038112 -43.542429 -0.000001 -0.000000 0.000000 -0.918329 3.905206 20.820665 2.974892 5.097480 -60.513830 3.266981 5.251306 -63.751797 0.000000 0.000000 0.000000 -6.190594 13.399337 27.815710 3.764233 5.467487 -69.071941 1.278684 3.654643 -38.556548 -0.000000 0.000000 -0.000000 -10.204752 21.361490 28.797799 0.278407 1.786151 -17.716447 1.528182 3.946791 -42.319333 0.000000 -0.000000 0.000000 0.064828 14.691500 14.953772 0.000000 0.000000 0.000000 -12.069993 -6.923744 61.446629 0.000010 39.415434 -0.000006 -1.891994 -4.118451 24.314813 -20.073127 16.089472 -24.921330 8.794315 -40.952759 -1.386095 -0.155067 -28.868788 -23.120265 -0.000000 -0.000000 0.000002 1.063106 -5.182548 38.505533 3.100499 -4.389847 70.453032 0.158036 1.204121 -14.952695 0.000001 0.000000 -0.000000 2.946401 -6.593236 70.499881 0.642383 -2.362168 30.423134 0.145582 1.156524 -14.348499 0.000007 0.000000 0.000000 5.948305 -7.199731 80.598568 0.322684 -1.704976 21.432114 0.002681 -0.158672 1.948216 0.000002 0.000001 -0.000001 1.932470 -22.479105 97.263314 1.111358 -3.021274 40.383999 3.356369 -4.472209 73.763953 -0.000001 -0.000000 -0.000005 2.711462 19.458340 10.974460 32.776350 5.350105 -9.557713 -14.971215 29.992290 7.133854 0.119196 0.028200 -0.826515 -0.000000 0.000002 0.000000 17.418169 -14.674323 -3.646819 29.719451 -9.884701 0.343517 -18.587463 -28.686245 2.368380 0.588312 -0.006910 0.681778 -0.000000 0.000005 0.000000 
-0.607367 111.386009 -0.006557 -24.526782 -3.184838 -2.553867 11.231890 -4.899477 -0.207103 3.545657 -2.400647 -0.151372 0.000000 0.000000 0.000000 3.557022 -2.388379 -0.108335 1.569038 0.632566 -1.281187 -6.886416 0.740099 3.939075 0.000000 0.000001 0.000000 0.453287 -15.502118 -10.972478 0.000000 0.000000 0.000000 -20.293312 3.094320 -36.833632 0.000009 -67.199308 0.000013 -41.623692 -11.480595 -7.750256 -22.783307 -14.798028 12.273485 3.108336 10.435732 14.812932 3.243418 44.532062 6.788106 -0.000001 -0.000005 -0.000003 1.972011 -2.886995 26.060452 3.263320 5.249487 -63.711711 1.613331 4.038111 -43.542429 -0.000000 -0.000000 0.000000 -0.911521 3.888564 20.812145 2.975743 5.097982 -60.523597 3.268540 5.252068 -63.768736 0.000001 0.000000 -0.000000 -6.204503 13.442065 27.794060 3.753697 5.463468 -68.961169 1.278683 3.654642 -38.556544 -0.000000 0.000000 -0.000000 -10.221007 21.393288 28.797334 0.277956 1.784786 -17.702302 1.529408 3.948140 -42.337177 -0.000001 0.000002 -0.000004 0.059574 14.649709 15.003830 0.000000 0.000000 0.000000 -12.024881 -6.807496 61.377651 0.000018 39.437031 -0.000019 -1.973395 -4.141925 24.291527 -20.073129 16.089469 -24.921327 8.794319 -40.952762 -1.386091 -0.157759 -28.865858 -23.124500 0.000002 0.000002 0.000002 1.073335 -5.197505 38.626106 3.094971 -4.387882 70.380776 0.158103 1.204430 -14.956567 -0.000003 -0.000000 -0.000001 2.960353 -6.598225 70.519736 0.642385 -2.362205 30.423575 0.145905 1.157737 -14.363849 0.000002 0.000000 -0.000000 5.942371 -7.197750 80.626702 0.322947 -1.705693 21.441509 0.002680 -0.158674 1.948215 0.000005 0.000002 -0.000001 1.935728 -22.481201 97.290219 1.111356 -3.021272 40.383999 3.356369 -4.472208 73.763953 0.000001 -0.000000 -0.000004 1.555780 19.701660 12.239933 34.460661 5.481878 -9.465012 -13.672413 30.056032 6.236506 -0.614567 0.071998 -1.491803 0.000000 -0.000004 0.000000 17.500963 -14.374324 -3.278477 29.919429 -9.673280 0.452162 -19.073477 -28.164659 2.026516 0.601306 -0.007226 0.696570 -0.000000 -0.000000 -0.000000 
-1.056227 111.203415 0.257137 -24.550722 -4.071690 -3.171536 11.248030 -4.952780 -0.020648 3.545659 -2.400646 -0.151373 0.000000 0.000000 0.000000 3.557023 -2.388380 -0.108336 1.594337 0.627995 -1.252938 -6.802727 0.692375 4.007736 -0.000000 0.000001 0.000000 0.460827 -15.508028 -10.923493 0.000000 0.000000 0.000000 -20.284306 3.109529 -36.878920 0.000043 -67.192888 0.000039 -41.627035 -11.498695 -7.746697 -22.783305 -14.798028 12.273486 3.113744 10.435901 14.808472 3.241929 44.531911 6.788997 -0.000001 -0.000000 -0.000001 1.969727 -2.895163 26.045173 3.259420 5.247581 -63.669063 1.613332 4.038112 -43.542429 0.000000 -0.000000 0.000000 -0.905924 3.873780 20.810152 2.976641 5.098484 -60.533610 3.269995 5.252771 -63.784548 -0.000001 0.000000 0.000001 -6.207491 13.459995 27.775152 3.749423 5.461812 -68.916226 1.278683 3.654642 -38.556544 -0.000000 -0.000000 -0.000001 -10.231297 21.412768 28.801436 0.278408 1.786184 -17.716710 1.530177 3.948985 -42.348276 -0.000001 0.000000 0.000001 0.056286 14.633617 15.032353 0.000000 0.000000 0.000000 -11.965741 -6.692803 61.317142 -0.000011 39.454062 0.000012 -2.087409 -4.155318 24.254591 -20.073129 16.089474 -24.921328 8.794319 -40.952759 -1.386096 -0.175228 -28.846870 -23.151860 0.000001 0.000000 0.000001 1.083631 -5.208380 38.767939 3.091856 -4.386774 70.339972 0.158058 1.204204 -14.953709 0.000002 0.000000 -0.000001 2.965371 -6.600095 70.543601 0.642268 -2.361959 30.420126 0.145984 1.158081 -14.368225 0.000006 0.000000 0.000000 5.939525 -7.195796 80.668653 0.323114 -1.706108 21.447081 0.002676 -0.158676 1.948215 0.000002 -0.000002 0.000002 1.933401 -22.482324 97.298244 1.111353 -3.021271 40.383995 3.356368 -4.472209 73.763953 -0.000001 -0.000003 -0.000003 0.194585 19.881612 13.594882 36.346934 5.564268 -9.378120 -12.148230 30.097174 5.604612 -1.248958 0.164418 -2.525064 -0.000000 -0.000000 0.000000 17.526103 -14.078968 -2.939117 30.187479 -9.516943 0.549383 -19.534469 -27.573556 1.746888 0.601102 -0.007235 0.696472 0.000000 -0.000002 -0.000000 
-1.553408 110.998764 0.554958 -24.581222 -4.969497 -3.787661 11.263819 -5.002254 0.159718 3.545658 -2.400647 -0.151373 0.000000 0.000000 0.000000 3.557024 -2.388379 -0.108335 1.621906 0.619887 -1.221550 -6.707822 0.616421 4.081619 -0.000001 0.000000 0.000000 0.467434 -15.512268 -10.880575 0.000000 0.000000 0.000000 -20.273856 3.119682 -36.916920 0.000017 -67.186672 0.000020 -41.632909 -11.516134 -7.742038 -22.783307 -14.798025 12.273486 3.121098 10.436135 14.802470 3.239612 44.531669 6.790431 0.000001 -0.000001 -0.000001 1.966044 -2.898950 26.024725 3.255078 5.245435 -63.621498 1.613332 4.038112 -43.542429 -0.000000 -0.000000 -0.000001 -0.901178 3.860916 20.811108 2.977380 5.098884 -60.541957 3.270973 5.253265 -63.795442 0.000000 -0.000000 -0.000003 -6.204291 13.462546 27.760018 3.748889 5.461611 -68.910516 1.278684 3.654642 -38.556541 -0.000000 0.000000 0.000001 -10.237960 21.423491 28.810107 0.279216 1.788723 -17.742613 1.530690 3.949563 -42.356035 -0.000000 -0.000000 0.000001 0.054408 14.630955 15.046420 0.000000 0.000000 0.000000 -11.904868 -6.587380 61.267343 -0.000015 39.465718 0.000020 -2.208373 -4.161586 24.213827 -20.073129 16.089470 -24.921327 8.794314 -40.952759 -1.386092 -0.196608 -28.823590 -23.185381 -0.000002 -0.000001 0.000004 1.092558 -5.215372 38.900345 3.089343 -4.385872 70.307133 0.157897 1.203594 -14.945972 0.000003 -0.000000 -0.000000 2.965382 -6.600171 70.564406 0.642081 -2.361640 30.415584 0.145952 1.157994 -14.367101 0.000002 0.000000 -0.000000 5.938353 -7.194008 80.713711 0.323230 -1.706378 21.450629 0.002683 -0.158673 1.948215 -0.000001 0.000000 -0.000002 1.923033 -22.482447 97.283614 1.111357 -3.021275 40.383995 3.356369 -4.472212 73.763953 0.000003 -0.000000 -0.000002 -1.284290 19.963451 15.039247 38.334864 5.561182 -9.280274 -10.422804 30.125564 5.199572 -1.720697 0.323547 -3.912767 0.000000 -0.000000 -0.000000 17.567590 -13.796779 -2.586131 30.483271 -9.399005 0.629107 -20.030699 -26.933451 1.491674 0.590050 -0.006958 0.683729 -0.000000 -0.000003 -0.000000 
-2.011264 110.792320 0.835632 -24.618707 -5.879645 -4.397320 11.278718 -5.047430 0.328639 3.545658 -2.400646 -0.151373 0.000000 0.000000 0.000000 3.557021 -2.388379 -0.108335 1.648778 0.606476 -1.184733 -6.610729 0.500819 4.168911 0.000000 -0.000000 0.000000 0.472353 -15.517852 -10.848850 0.000000 0.000000 0.000000 -20.272638 3.135293 -36.949213 0.000001 -67.183496 -0.000003 -41.629842 -11.525125 -7.742592 -22.783307 -14.798028 12.273491 3.130813 10.436444 14.794530 3.231151 44.530853 6.796625 -0.000001 0.000002 -0.000000 1.963850 -2.895327 25.998248 3.251307 5.243597 -63.580360 1.613335 4.038113 -43.542422 -0.000001 0.000000 0.000000 -0.897647 3.850893 20.813552 2.977795 5.099123 -60.546588 3.271339 5.253434 -63.799301 -0.000001 -0.000001 0.000001 -6.195210 13.449003 27.750727 3.752079 5.462834 -68.944189 1.278684 3.654643 -38.556544 -0.000000 0.000000 -0.000000 -10.241672 21.423710 28.826096 0.280232 1.791849 -17.774893 1.531024 3.949928 -42.360724 0.000000 0.000000 -0.000001 0.054215 14.638967 15.044540 0.000000 0.000000 0.000000 -11.849491 -6.498835 61.233978 -0.000000 39.468859 -0.000004 -2.323301 -4.159774 24.173612 -20.073125 16.089474 -24.921327 8.794320 -40.952759 -1.386091 -0.217244 -28.801081 -23.217772 -0.000002 0.000001 0.000001 1.098946 -5.217610 39.002661 3.087526 -4.385228 70.283432 0.157619 1.202560 -14.932790 0.000001 -0.000001 0.000000 2.961692 -6.598928 70.576160 0.641925 -2.361372 30.411762 0.145873 1.157675 -14.363055 -0.000000 0.000000 -0.000000 5.939037 -7.192695 80.753743 0.323252 -1.706421 21.451177 0.002682 -0.158673 1.948218 -0.000000 0.000001 -0.000000 1.900773 -22.481272 97.237305 1.111359 -3.021273 40.383999 3.356371 -4.472212 73.763953 -0.000001 -0.000001 -0.000003 -2.786862 19.944820 16.439675 40.236979 5.453400 -9.140580 -8.577695 30.141075 5.038678 -2.027092 0.536065 -5.532827 0.000000 -0.000003 0.000000 17.578124 -13.520690 -2.273624 30.795069 -9.303279 0.687408 -20.487371 -26.256970 1.290240 0.572044 -0.006558 0.663243 0.000000 0.000000 -0.000000 
